<svg width="241" height="288" viewBox="0 0 241 288" fill="none" xmlns="http://www.w3.org/2000/svg">
<path d="M241 120C241 186.274 171.11 288 120.5 288C69.89 288 0 186.274 0 120C0 53.7258 53.9497 0 120.5 0C187.05 0 241 53.7258 241 120Z" fill="#1D4E89"/>
<path d="M129.939 152.213C129.939 151.236 130.648 150.405 131.606 150.211C154.147 145.646 171.11 125.796 171.11 102C171.11 74.8276 148.991 52.8 121.705 52.8C94.4194 52.8 72.3 74.8276 72.3001 102C72.3001 125.796 89.2632 145.646 111.804 150.211C112.762 150.405 113.471 151.236 113.471 152.213L113.471 231.2C113.471 232.305 114.366 233.2 115.471 233.2L127.939 233.2C129.044 233.2 129.939 232.305 129.939 231.2L129.939 218.8C129.939 217.695 130.835 216.8 131.939 216.8L160.876 216.8C161.98 216.8 162.876 215.905 162.876 214.8L162.876 202.4C162.876 201.295 161.98 200.4 160.876 200.4L131.939 200.4C130.835 200.4 129.939 199.505 129.939 198.4L129.939 186C129.939 184.895 130.835 184 131.939 184L160.876 184C161.98 184 162.876 183.105 162.876 182L162.876 169.6C162.876 168.495 161.98 167.6 160.876 167.6L131.939 167.6C130.835 167.6 129.939 166.705 129.939 165.6L129.939 152.213ZM154.642 102C154.642 120.115 139.895 134.8 121.705 134.8C103.515 134.8 88.7684 120.115 88.7684 102C88.7684 83.885 103.515 69.2 121.705 69.2C139.895 69.2 154.642 83.885 154.642 102Z" fill="#F2F5F9"/>
</svg>
